<?xml version="1.0" standalone="no"?><!DOCTYPE svg PUBLIC "-//W3C//DTD SVG 1.1//EN" "http://www.w3.org/Graphics/SVG/1.1/DTD/svg11.dtd"><svg t="1755482411861" class="icon" viewBox="0 0 1024 1024" version="1.1" xmlns="http://www.w3.org/2000/svg" p-id="1181" xmlns:xlink="http://www.w3.org/1999/xlink" width="200" height="200"><path d="M455.075558 56.892444v227.569777c0 31.35804-25.406412 56.828448-56.95644 56.828448H56.95644A56.892444 56.892444 0 0 1 0 284.462221V56.892444C0 25.470408 25.470408 0 56.892444 0h341.29067c31.35804 0 56.95644 25.470408 56.95644 56.892444z m-56.95644 398.183114H56.95644A56.892444 56.892444 0 0 0 0 511.968002v455.075558c0 31.422036 25.470408 56.892444 56.892444 56.892444h341.29067a56.95644 56.95644 0 0 0 56.95644-56.892444V511.968002a56.892444 56.892444 0 0 0-56.95644-56.892444z m568.924442 227.569777H625.75289a56.892444 56.892444 0 0 0-56.95644 56.828448v227.569777c0 31.422036 25.470408 56.892444 56.95644 56.892444h341.29067c31.422036 0 56.892444-25.470408 56.892444-56.892444v-227.569777a56.892444 56.892444 0 0 0-56.892444-56.828448z m0-682.645335H625.75289a56.892444 56.892444 0 0 0-56.95644 56.892444V511.968002c0 31.35804 25.470408 56.892444 56.95644 56.892444h341.29067c31.422036 0 56.892444-25.470408 56.892444-56.892444V56.892444A56.892444 56.892444 0 0 0 967.04356 0z" fill="#8211db" p-id="1182"></path></svg>